<svg width="152" height="49" viewBox="0 0 152 49" fill="none" xmlns="http://www.w3.org/2000/svg">
<path d="M151.246 48H1C2.7502 41.6572 8.561 37 15.4609 37C15.9297 37 16.3906 37.0215 16.8476 37.0625C18.6758 27.9023 26.7636 21 36.4609 21C39.9824 21 43.291 21.9102 46.164 23.5078C50.5488 10.4258 62.9043 1 77.4609 1C89.8476 1 100.641 7.82422 106.285 17.9199C108.92 16.6875 111.859 16 114.961 16C126.143 16 135.232 24.9492 135.457 36.0762C135.951 36.0254 136.453 36 136.961 36C144.116 36 150.061 41.1834 151.246 48Z" stroke="black"/>
</svg>
