<svg xmlns="http://www.w3.org/2000/svg" viewBox="0 0 360 700" width="290" height="320" >
	<g transform="matrix(0.41999998688697815,0,0,0.41999998688697815,6.1295928955078125,489.884521484375)" opacity="1" style="display: block;">
		<g opacity="1" transform="matrix(1,0,0,1,411,337.5)">
			<path fill="rgb(255,153,0)" fill-opacity="1" d=" M251.5,-28.5 C267.239990234375,-28.5 280,-15.739999771118164 280,0 C280,15.739999771118164 267.239990234375,28.5 251.5,28.5 C251.5,28.5 -280,28.5 -280,28.5 C-280,28.5 -280,-28.5 -280,-28.5 C-280,-28.5 251.5,-28.5 251.5,-28.5z">
			</path>
		</g>
		<g opacity="1" transform="matrix(1,0,0,1,412.5830078125,290)">
			<path fill="rgb(255,195,48)" fill-opacity="1" d=" M273.49700927734375,-19 C282.5830078125,-1.7359999418258667 270.0639953613281,19 250.55499267578125,19 C250.55499267578125,19 -282.5830078125,19 -282.5830078125,19 C-282.5830078125,19 -282.5830078125,-19 -282.5830078125,-19 C-282.5830078125,-19 273.49700927734375,-19 273.49700927734375,-19z">
			</path>
		</g>
		<g opacity="1" transform="matrix(1,0,0,1,412.8330078125,385)">
			<path fill="rgb(255,99,0)" fill-opacity="1" d=" M273.24700927734375,19 C282.3330078125,1.7359999418258667 269.8139953613281,-19 250.30499267578125,-19 C250.30499267578125,-19 -282.3330078125,-19 -282.3330078125,-19 C-282.3330078125,-19 -282.3330078125,19 -282.3330078125,19 C-282.3330078125,19 273.24700927734375,19 273.24700927734375,19z">
			</path>
		</g>
		<g opacity="1" transform="matrix(1,0,0,1,86.5,337)">
			<path fill="rgb(9,9,9)" fill-opacity="1" d=" M23.559999465942383,-66.53500366210938 C-21.48200035095215,-66.53500366210938 -36.5,-49.89799880981445 -36.5,-0.0010000000474974513 C-36.5,49.895999908447266 -21.48200035095215,66.53399658203125 23.559999465942383,66.53399658203125 C23.559999465942383,66.53399658203125 36.5,66.5 36.5,66.5 C36.5,66.5 36.5,-66.50900268554688 36.5,-66.50900268554688 C36.5,-66.50900268554688 23.559999465942383,-66.53500366210938 23.559999465942383,-66.53500366210938z">
			</path>
			<path stroke-linecap="round" stroke-linejoin="round" fill-opacity="0" stroke="rgb(9,9,9)" stroke-opacity="1" stroke-width="4" d=" M23.559999465942383,-66.53500366210938 C-21.48200035095215,-66.53500366210938 -36.5,-49.89799880981445 -36.5,-0.0010000000474974513 C-36.5,49.895999908447266 -21.48200035095215,66.53399658203125 23.559999465942383,66.53399658203125 C23.559999465942383,66.53399658203125 36.5,66.5 36.5,66.5 C36.5,66.5 36.5,-66.50900268554688 36.5,-66.50900268554688 C36.5,-66.50900268554688 23.559999465942383,-66.53500366210938 23.559999465942383,-66.53500366210938z">
			</path>
		</g>
		<g opacity="1" transform="matrix(1,0,0,1,448.52099609375,337)">
			<path stroke-linecap="round" stroke-linejoin="round" fill-opacity="0" stroke="rgb(9,9,9)" stroke-opacity="1" stroke-width="4" d=" M230.2729949951172,-66.50800323486328 C-14.961999893188477,-67.5989990234375 -73.22200012207031,-66.53399658203125 -318.4590148925781,-66.53399658203125 C-318.4590148925781,-66.53399658203125 -318.4590148925781,66.53399658203125 -318.4590148925781,66.53399658203125 C-73.22200012207031,66.53399658203125 -14.961999893188477,67.5989990234375 230.2729949951172,66.50800323486328 C252.41299438476562,66.45600128173828 267.489013671875,54.597999572753906 283.47900390625,40.90999984741211 C295.6820068359375,30.46500015258789 306.0880126953125,18.95400047302246 312.90899658203125,10.8100004196167 C315.7640075683594,7.4019999504089355 317.19000244140625,5.697000026702881 317.89300537109375,3.26200008392334 C318.4490051269531,1.3359999656677246 318.4599914550781,-1.38100004196167 317.9169921875,-3.312000036239624 C317.23199462890625,-5.750999927520752 315.82000732421875,-7.460999965667725 312.99700927734375,-10.880999565124512 C306.197998046875,-19.114999771118164 295.781005859375,-30.761999130249023 283.47900390625,-41.27299880981445 C267.63800048828125,-54.805999755859375 252.67100524902344,-66.45600128173828 230.2729949951172,-66.50800323486328z">
			</path>
		</g>
		<g opacity="1" transform="matrix(1,0,0,1,752.0880126953125,337.3299865722656)">
			<path fill="rgb(9,9,9)" fill-opacity="1" d=" M-4.245999813079834,-25.329999923706055 C-11.484000205993652,-19.274999618530273 -16.089000701904297,-10.175000190734863 -16.089000701904297,0 C-16.089000701904297,10.175000190734863 -11.484000205993652,19.274999618530273 -4.245999813079834,25.329999923706055 C0.6370000243186951,20.632999420166016 5.020999908447266,16.209999084472656 8.684000015258789,12.414999961853027 C8.684000015258789,12.414999961853027 8.6850004196167,12.413999557495117 8.6850004196167,12.413999557495117 C12.57699966430664,8.380000114440918 14.52400016784668,6.36299991607666 15.381999969482422,3.6589999198913574 C16.089000701904297,1.4279999732971191 16.089000701904297,-1.4270000457763672 15.381999969482422,-3.6579999923706055 C14.52400016784668,-6.36299991607666 12.57699966430664,-8.380000114440918 8.6850004196167,-12.413000106811523 C8.6850004196167,-12.413000106811523 8.684000015258789,-12.414999961853027 8.684000015258789,-12.414999961853027 C5.020999908447266,-16.209999084472656 0.6370000243186951,-20.632999420166016 -4.245999813079834,-25.329999923706055z">
			</path>
		</g>
	</g>
</svg>
